<svg width="24" height="20" viewBox="0 0 24 20" fill="none" xmlns="http://www.w3.org/2000/svg">
<path d="M22.6508 8.11803L22.6883 8.12623H6.62857L11.6772 3.06652C11.9244 2.8195 12.06 2.48486 12.06 2.13364C12.06 1.78242 11.9244 1.45013 11.6772 1.20252L10.8916 0.416569C10.6446 0.169544 10.3154 0.032959 9.96437 0.032959C9.61315 0.032959 9.28378 0.168569 9.03676 0.415593L0.382517 9.06906C0.134517 9.31706 -0.00109245 9.6474 -0.000116843 9.99881C-0.00109245 10.3522 0.134517 10.6827 0.382517 10.9303L9.03676 19.5846C9.28378 19.8314 9.61296 19.9672 9.96437 19.9672C10.3154 19.9672 10.6446 19.8312 10.8916 19.5846L11.6772 18.7986C11.9244 18.552 12.06 18.2226 12.06 17.8714C12.06 17.5204 11.9244 17.2084 11.6772 16.9615L6.57159 11.8735H22.6688C23.3921 11.8735 23.9999 11.2501 23.9999 10.5272V9.41559C23.9999 8.69267 23.3741 8.11803 22.6508 8.11803Z" fill="white"/>
</svg>
