<svg width="16" height="16" viewBox="0 0 16 16" fill="none" xmlns="http://www.w3.org/2000/svg">
<g clip-path="url(#clip0)">
<path d="M5.71434 6.57145C6.50332 6.57145 7.14291 5.42018 7.14291 4.00002C7.14291 2.57986 6.50332 1.42859 5.71434 1.42859C4.92536 1.42859 4.28577 2.57986 4.28577 4.00002C4.28577 5.42018 4.92536 6.57145 5.71434 6.57145Z" fill="white"/>
<path d="M4.06174 14.4661C4.26745 14.7292 4.62088 14.8572 5.14288 14.8572C5.6028 14.8329 6.04962 14.6955 6.44374 14.4572C6.91638 14.1777 7.45131 14.0206 8.00003 14.0001C8.54874 14.0206 9.08367 14.1777 9.55631 14.4572C9.95043 14.6955 10.3973 14.8329 10.8572 14.8572C11.3792 14.8572 11.7326 14.7292 11.9383 14.4661C12.2389 14.0812 12.2626 13.3709 12.0086 12.3552C11.462 10.1695 8.98488 8.28577 8.00003 8.28577C7.01517 8.28577 4.53803 10.1695 3.99145 12.3552C3.73745 13.3715 3.76117 14.0812 4.06174 14.4661Z" fill="white"/>
<path d="M1.7 15.7331C1.70851 15.8833 1.83303 16.0005 1.98343 16H14.0166C14.1671 16.0005 14.2916 15.8831 14.3 15.7329C14.3857 14.0717 14.8229 12.582 15.2466 11.1411C15.6343 9.82457 16 8.58086 16 7.42857C16 5.26714 15.3111 4.68943 15.0151 4.54286C14.5295 4.32401 13.9952 4.23539 13.4649 4.28572C13.3711 4.29802 13.2773 4.2631 13.2143 4.19246C13.1514 4.12182 13.1275 4.02461 13.1506 3.93286C13.4013 2.9722 13.1923 1.9496 12.5849 1.16429C12.0363 0.445656 11.1896 0.0168867 10.2857 0C8.56 0 8.29057 1.152 8.27971 1.2C8.25258 1.33294 8.13568 1.42846 8 1.42857H7.99771C7.86268 1.42765 7.74672 1.33231 7.71971 1.2C7.70943 1.152 7.44 0 5.71429 0C4.81047 0.0160789 3.96347 0.443997 3.41429 1.162C2.80684 1.94731 2.59789 2.96991 2.84857 3.93057C2.87161 4.02233 2.84773 4.11953 2.78481 4.19018C2.72189 4.26082 2.62808 4.29574 2.53429 4.28343C2.44109 4.27361 2.34742 4.26912 2.25371 4.27C1.81574 4.26397 1.38204 4.35675 0.984857 4.54143C0.688857 4.68943 0 5.26714 0 7.42857C0 8.58086 0.365714 9.82457 0.753429 11.1411C1.17714 12.582 1.61543 14.0717 1.7 15.7331ZM14.5803 5.19029C15.4597 5.578 15.6946 6.91543 15.1117 8.23486C14.8719 8.80713 14.4789 9.30222 13.976 9.66572C13.693 9.87211 13.3544 9.98859 13.0043 10C12.8328 10.0007 12.663 9.96537 12.506 9.89629C12.0326 9.65719 11.7202 9.18629 11.684 8.65714C11.6129 8.04065 11.7134 7.41649 11.9743 6.85343C12.5563 5.53314 13.7029 4.80372 14.5803 5.19143V5.19029ZM10.2857 0.857143C11.4071 0.857143 12.2857 2.23771 12.2857 4C12.2857 5.76229 11.4071 7.14286 10.2857 7.14286C9.16429 7.14286 8.28572 5.76229 8.28572 4C8.28572 2.23771 9.16429 0.857143 10.2857 0.857143ZM8 7.71429C9.29486 7.71429 11.9634 9.81857 12.5629 12.2163C12.8657 13.4286 12.8089 14.2794 12.3886 14.8177C12.0723 15.2231 11.5569 15.4286 10.8571 15.4286C10.3084 15.4081 9.7735 15.2509 9.30086 14.9714C8.90674 14.7331 8.45992 14.5957 8 14.5714C7.54008 14.5957 7.09327 14.7331 6.69914 14.9714C6.2265 15.2509 5.69158 15.4081 5.14286 15.4286C4.44314 15.4286 3.92771 15.2231 3.61143 14.8177C3.19114 14.2794 3.13429 13.4286 3.43714 12.2163C4.03657 9.81857 6.70514 7.71429 8 7.71429ZM5.71429 0.857143C6.83571 0.857143 7.71429 2.23771 7.71429 4C7.71429 5.76229 6.83571 7.14286 5.71429 7.14286C4.59286 7.14286 3.71429 5.76229 3.71429 4C3.71429 2.23771 4.59286 0.857143 5.71429 0.857143ZM1.41971 5.19143C2.29857 4.80372 3.44371 5.53429 4.02571 6.85286C4.28674 7.41609 4.38719 8.04046 4.316 8.65714C4.28029 9.18681 3.96784 9.65836 3.494 9.89772C3.3369 9.96631 3.16714 10.0012 2.99571 10C2.64574 9.98862 2.30727 9.87224 2.02429 9.666C1.52139 9.30251 1.12843 8.80742 0.888571 8.23514C0.306571 6.91657 0.540286 5.57914 1.41971 5.19143Z" fill="white"/>
<path d="M12.7363 9.37434C13.053 9.47747 13.4004 9.40948 13.6549 9.19462C14.0693 8.89127 14.3923 8.47992 14.5889 8.00547C15.026 7.01347 14.9166 5.96433 14.35 5.71433C13.7835 5.46433 12.9346 6.09147 12.4972 7.08347C12.2794 7.5485 12.1937 8.06445 12.2495 8.5749C12.2626 8.90764 12.4467 9.20997 12.7363 9.37434Z" fill="white"/>
<path d="M2.34518 9.19453C2.59967 9.40929 2.94709 9.47726 3.26375 9.37424C3.55309 9.20949 3.73677 8.90695 3.74947 8.57424C3.80521 8.06379 3.71952 7.54784 3.50175 7.08282C3.13032 6.23853 2.45918 5.65882 1.9189 5.65882C1.8264 5.65841 1.73483 5.67729 1.65004 5.71425C1.08347 5.96425 0.974038 7.01339 1.41118 8.00539C1.60772 8.47983 1.93081 8.89117 2.34518 9.19453Z" fill="white"/>
<path d="M10.2857 6.57145C11.0747 6.57145 11.7143 5.42018 11.7143 4.00002C11.7143 2.57986 11.0747 1.42859 10.2857 1.42859C9.49677 1.42859 8.85718 2.57986 8.85718 4.00002C8.85718 5.42018 9.49677 6.57145 10.2857 6.57145Z" fill="white"/>
</g>
<defs>
<clipPath id="clip0">
<rect width="16" height="16" fill="white"/>
</clipPath>
</defs>
</svg>
