<svg width="48" height="48" viewBox="0 0 48 48" fill="none" xmlns="http://www.w3.org/2000/svg">
<path d="M24 48C37.2548 48 48 37.2548 48 24C48 10.7452 37.2548 0 24 0C10.7452 0 0 10.7452 0 24C0 37.2548 10.7452 48 24 48Z" fill="#FF473A"/>
<path d="M42.7719 38.9535C40.8479 41.3663 38.4686 43.3999 35.7629 44.9242C34.0075 45.9135 32.1159 46.6874 30.1234 47.2115H29.1203C27.1199 47.2115 25.151 46.7295 23.3779 45.8058L12.9031 40.3435L10.5962 39.075L8.08157 37.6918L20.7673 37.1041C22.2004 37.1041 21.8448 33.5893 21.8448 32.1572L28.7029 20.2629L37.2234 28.7834C38.3871 29.9471 39.2972 31.3195 39.9153 32.8125C40.5334 34.3054 40.8606 35.9188 40.8606 37.5654L42.7719 38.9535Z" fill="#FFDC8D"/>
<path d="M35.7629 44.924C34.0074 45.9134 32.1158 46.6873 30.1234 47.2114H29.1203C27.1199 47.2114 25.151 46.7294 23.3779 45.8057L12.9031 40.3434L10.5962 39.0749L25.2851 40.1828C25.2851 40.1828 28.127 44.924 35.7608 44.924C35.762 44.924 35.762 44.924 35.7629 44.924Z" fill="#F2CE86"/>
<path d="M8.13064 15.4747H6.69636C6.62539 15.4703 6.55451 15.4669 6.48467 15.4669C5.73251 15.4669 4.98157 15.754 4.40735 16.3282C3.26004 17.4755 3.26004 19.3354 4.40735 20.4828L6.02417 22.1007C5.39145 22.175 4.77889 22.4542 4.29364 22.9395C3.14632 24.0868 3.14632 25.9479 4.29364 27.0952L5.14254 27.9441C5.38807 28.1897 5.66614 28.3833 5.96454 28.5228C5.98404 28.5091 6.00439 28.4972 6.02417 28.484V28.5486C6.00439 28.5398 5.98414 28.5321 5.96454 28.5228C5.82148 28.6196 5.68526 28.7323 5.55814 28.8595C4.41082 30.0078 4.41082 31.8679 5.55814 33.0152L6.40704 33.8642C6.49939 33.9555 6.59623 34.0397 6.69645 34.1164V31.8632H8.13064V15.4747Z" fill="#F2CE86"/>
<path d="M26.1098 0.00012207H9.29115C7.858 0.00012207 6.69606 1.16065 6.69606 2.5939V37.5901C6.69606 39.022 7.85809 40.1826 9.29115 40.1826H25.2853C23.8943 38.4596 23.5145 36.1927 24.1433 34.1705L27.6647 24.2216L28.7036 25.2604V2.5939C28.7035 1.16065 27.543 0.00012207 26.1098 0.00012207Z" fill="#5C5E70"/>
<path d="M20.0669 21.2219C19.4312 21.8567 19.1137 22.6874 19.1137 23.52C19.1137 24.3527 19.4311 25.1844 20.0669 25.8201L23.8109 29.5641C24.7944 30.5476 25.0824 32.0473 24.4838 33.3013C24.3486 33.5833 24.235 33.8753 24.143 34.1701H7.73586V5.3045H27.6656V24.2224L24.6651 21.2219C23.3956 19.9513 21.3365 19.9513 20.0669 21.2219Z" fill="#F9EED7"/>
<path d="M19.7535 37.2559C19.7535 38.018 19.3392 38.6831 18.722 39.0358C18.8953 38.7351 18.9943 38.3873 18.9943 38.0151C18.9943 36.8807 18.0755 35.9609 16.9411 35.9609C16.5688 35.9609 16.2202 36.0598 15.9194 36.2342C16.2721 35.617 16.9382 35.2017 17.7003 35.2017C18.8347 35.2016 19.7535 36.1215 19.7535 37.2559Z" fill="#494B5B"/>
<path d="M32.5808 27.5811L30.0083 25.0086V21.5682L28.7034 20.2632V25.26L31.8026 28.3592C32.1493 28.7058 32.7419 28.4604 32.7419 27.9702C32.7419 27.8243 32.6839 27.6843 32.5808 27.5811Z" fill="#F2CE86"/>
<path d="M24.4478 25.6325V24.3633H25.7169V25.6325H24.4478ZM19.664 23.3868V22.1177H20.9331V23.3868V24.656H19.664V23.3868ZM23.1787 23.3868V22.1177H24.4479V23.3868H23.1787ZM22.6769 20.2837V20.5658H21.4078V20.4127C20.917 20.5636 20.4549 20.8332 20.0665 21.2215C19.9026 21.3854 19.7598 21.5624 19.6383 21.7491V22.0922H19.4436C19.2239 22.5412 19.1141 23.0305 19.1141 23.5206C19.1141 24.3527 19.4316 25.1848 20.0666 25.8199L23.8114 29.5645C24.7943 30.5474 25.0825 32.0472 24.4835 33.3015C24.3484 33.5841 24.2347 33.8757 24.1435 34.1706H21.2702V34.1707H24.1432C23.5146 36.1929 23.8944 38.4597 25.2852 40.1828H25.8363C27.4124 40.1828 28.6915 38.911 28.7033 37.3377V25.2603L27.6646 24.2218L25.7167 22.2738V23.387H24.4476V22.118H25.5609L24.6646 21.2216C24.1095 20.6656 23.4026 20.3529 22.6769 20.2837ZM27.6648 5.30408H16.8625V5.30436H27.6648V5.30408Z" fill="white"/>
<path d="M13.3014 11.9481H12.0323V13.2172H13.3014V11.9481Z" fill="#5C5E70"/>
<path d="M13.3014 22.0143H12.0323V23.2834H13.3014V22.0143Z" fill="#5C5E70"/>
<path d="M19.7495 9.59857V15.5659H25.7168V9.59857H19.7495ZM24.2531 14.1022H21.2131V11.0623H24.2531V14.1022Z" fill="#5C5E70"/>
<path d="M23.3678 11.9481H22.0986V13.2172H23.3678V11.9481Z" fill="#5C5E70"/>
<path d="M18.3344 19.5191V18.2501H17.0654V19.5191V20.7882H18.3344V20.8229V22.092H19.6036V20.8229V19.5537H18.3344V19.5191Z" fill="#5C5E70"/>
<path d="M23.1787 16.6354V17.9045H24.4478H25.7169V16.6354H24.4478H23.1787Z" fill="#5C5E70"/>
<path d="M18.3687 22.1172H17.0996V23.3863H18.3687V22.1172Z" fill="#5C5E70"/>
<path d="M17.0651 16.9812H15.7959V18.2504H17.0651V16.9812Z" fill="#5C5E70"/>
<path d="M25.6904 19.3763H24.4212V20.6455H25.6904V19.3763Z" fill="#5C5E70"/>
<path d="M21.4078 16.7584H20.1386H18.8696V18.0275H20.1386V19.2966H21.4078V20.5657H22.6768V19.2966V18.0275H21.4078V16.7584Z" fill="#5C5E70"/>
<path d="M12.6112 16.9809V18.2501H13.8803V16.9809V15.5659H15.6512V9.59857H9.68389V15.566H12.6113V16.9809H12.6112ZM11.1475 11.0622H14.1874V14.1021H11.1475V11.0622Z" fill="#5C5E70"/>
<path d="M10.9521 16.9809H9.68289V19.6651V20.206V25.6324H15.6502V19.6651H10.952V16.9809H10.9521ZM11.1466 21.1287H14.1865V24.1686H11.1466V21.1287Z" fill="#5C5E70"/>
<path d="M18.3344 14.4858V13.2167V11.9476H17.0654V13.2167V14.4858V15.7549H18.3344V14.4858Z" fill="#5C5E70"/>
<path d="M27.6653 24.222L24.6648 21.2214C23.3959 19.9515 21.3367 19.9515 20.0666 21.2214C19.4316 21.8565 19.114 22.6874 19.114 23.5206C19.114 24.3526 19.4315 25.1846 20.0666 25.8197L23.8113 29.5644C24.7943 30.5473 25.0825 32.047 24.4835 33.3013C24.3484 33.584 24.2347 33.8755 24.1435 34.1705C23.5142 36.1927 23.8947 38.4591 25.2852 40.1829L26.5468 41.5613C27.98 41.5613 30.3672 39.7608 30.3672 38.3286L28.7034 25.26L27.6653 24.222Z" fill="#FFDC8D"/>
<path d="M23.9328 22.2027C23.1669 21.4368 21.9251 21.4368 21.1592 22.2027C20.3932 22.9687 20.3932 24.2105 21.1592 24.9764C21.9251 25.7424 22.5865 25.1619 23.3524 24.3959C24.1183 23.6301 24.6988 22.9687 23.9328 22.2027Z" fill="#F9EED7"/>
<path d="M23.184 23.3405C23.4365 23.3405 23.6412 23.1358 23.6412 22.8832C23.6412 22.6307 23.4365 22.426 23.184 22.426C22.9315 22.426 22.7268 22.6307 22.7268 22.8832C22.7268 23.1358 22.9315 23.3405 23.184 23.3405Z" fill="#FCF8F2"/>
</svg>
